<?xml version="1.0" encoding="iso-8859-1"?><!-- Generator: Adobe Illustrator 21.0.2, SVG Export Plug-In . SVG Version: 6.00 Build 0)  --><svg xmlns="http://www.w3.org/2000/svg" xmlns:xlink="http://www.w3.org/1999/xlink" viewBox="0 0 80 80" width="80px" height="80px"><circle style="fill:none;stroke:#000000;stroke-width:2;stroke-miterlimit:10;" cx="50" cy="30" r="22"/><circle cx="50" cy="12" r="1"/><circle cx="50" cy="48" r="1"/><circle cx="68" cy="30" r="1"/><circle cx="32" cy="30" r="1"/><ellipse transform="matrix(0.9659 -0.2588 0.2588 0.9659 -1.7196 12.165)" cx="45.341" cy="12.613" rx="1" ry="1"/><ellipse transform="matrix(0.9659 -0.2588 0.2588 0.9659 -10.4021 15.7614)" cx="54.659" cy="47.387" rx="1" ry="1"/><ellipse transform="matrix(0.9659 -0.2588 0.2588 0.9659 -4.2627 18.3044)" cx="67.387" cy="25.341" rx="1" ry="1"/><ellipse transform="matrix(0.9659 -0.2588 0.2588 0.9659 -7.8591 9.6219)" cx="32.613" cy="34.659" rx="1" ry="1"/><ellipse transform="matrix(0.866 -0.5 0.5 0.866 -1.7128 22.4308)" cx="41" cy="14.412" rx="1" ry="1"/><ellipse transform="matrix(0.866 -0.5 0.5 0.866 -14.8897 35.6077)" cx="59" cy="45.588" rx="1" ry="1"/><ellipse transform="matrix(0.866 -0.5 0.5 0.866 -1.7128 35.6077)" cx="65.588" cy="21" rx="1" ry="1"/><ellipse transform="matrix(0.866 -0.5 0.5 0.866 -14.8897 22.4308)" cx="34.412" cy="39" rx="1" ry="1"/><ellipse transform="matrix(0.7071 -0.7071 0.7071 0.7071 -1.2965 31.4142)" cx="37.272" cy="17.272" rx="1" ry="1"/><ellipse transform="matrix(0.7071 -0.7071 0.7071 0.7071 -11.8406 56.8701)" cx="62.728" cy="42.728" rx="1" ry="1"/><ellipse transform="matrix(0.7071 -0.7071 0.7071 0.7071 6.1594 49.4142)" cx="62.728" cy="17.272" rx="1" ry="1"/><ellipse transform="matrix(0.7071 -0.7071 0.7071 0.7071 -19.2965 38.8701)" cx="37.272" cy="42.728" rx="1" ry="1"/><ellipse transform="matrix(0.5 -0.866 0.866 0.5 -0.9808 40.3013)" cx="34.412" cy="21" rx="1" ry="1"/><ellipse transform="matrix(0.5 -0.866 0.866 0.5 -0.9808 76.3013)" cx="65.588" cy="39" rx="1" ry="1"/><ellipse transform="matrix(0.5 -0.866 0.866 0.5 17.0192 58.3013)" cx="59" cy="14.412" rx="1" ry="1"/><ellipse transform="matrix(0.5 -0.866 0.866 0.5 -18.9808 58.3013)" cx="41" cy="45.588" rx="1" ry="1"/><ellipse transform="matrix(0.2588 -0.9659 0.9659 0.2588 -0.3054 50.2845)" cx="32.613" cy="25.341" rx="1" ry="1"/><ellipse transform="matrix(0.2588 -0.9659 0.9659 0.2588 16.4679 90.7789)" cx="67.387" cy="34.659" rx="1" ry="1"/><ellipse transform="matrix(0.2588 -0.9659 0.9659 0.2588 28.3285 62.1451)" cx="54.659" cy="12.613" rx="1" ry="1"/><ellipse transform="matrix(0.2588 -0.9659 0.9659 0.2588 -12.1659 78.9184)" cx="45.341" cy="47.387" rx="1" ry="1"/><line style="fill:none;stroke:#000000;stroke-width:2;stroke-miterlimit:10;" x1="36.25" y1="47.25" x2="30.884" y2="52.616"/><line style="fill:none;stroke:#000000;stroke-width:2;stroke-miterlimit:10;" x1="27.384" y1="49.116" x2="32.75" y2="43.75"/><path style="fill:none;stroke:#000000;stroke-width:2;stroke-miterlimit:10;" d="M30.757,52.414l-3.172-3.172c-0.781-0.781-2.047-0.781-2.828,0L8.586,65.414c-0.781,0.781-0.781,2.047,0,2.828l3.172,3.172c0.781,0.781,2.047,0.781,2.828,0l16.172-16.172C31.538,54.462,31.538,53.195,30.757,52.414z"/><line style="fill:none;stroke:#000000;stroke-width:2;stroke-miterlimit:10;" x1="23" y1="51" x2="26" y2="54"/><line style="fill:none;stroke:#000000;stroke-width:2;stroke-miterlimit:10;" x1="20" y1="54" x2="23" y2="57"/><line style="fill:none;stroke:#000000;stroke-width:2;stroke-miterlimit:10;" x1="17" y1="57" x2="20" y2="60"/><line style="fill:none;stroke:#000000;stroke-width:2;stroke-miterlimit:10;" x1="14" y1="60" x2="17" y2="63"/><line style="fill:none;stroke:#000000;stroke-width:2;stroke-miterlimit:10;" x1="11" y1="63" x2="14" y2="66"/></svg>