<?xml version="1.0" encoding="utf-8"?>
<!-- Generator: Adobe Illustrator 22.0.1, SVG Export Plug-In . SVG Version: 6.00 Build 0)  -->
<svg version="1.1" id="Layer_1" xmlns="http://www.w3.org/2000/svg" xmlns:xlink="http://www.w3.org/1999/xlink" x="0px" y="0px"
	 viewBox="0 0 128 128" style="enable-background:new 0 0 128 128;" xml:space="preserve">
<style type="text/css">
	.st0{fill:none;stroke:#000000;stroke-width:6;stroke-linecap:round;stroke-linejoin:round;stroke-miterlimit:10;}
</style>
<g>
	<path d="M109,37h10c1.7,0,3-1.4,3-3c0-0.2,0-0.3,0-0.4c-0.1-6.1-2.5-11.8-6.9-16.1c-3.8-3.7-8.8-5.8-14-6.4L99,11H29
		c-7.2,0-13,5.8-13,13v6.8c0,1.6,1.2,3.1,2.8,3.2c1.7,0.1,3.2-1.3,3.2-3v-7c0-3.9,3.1-7,7-7h67v7C96,31.2,101.8,37,109,37z
		 M102,17.3c3.4,0.6,6.5,2.2,9,4.7c2.5,2.5,4.1,5.6,4.7,9H109c-3.9,0-7-3.1-7-7V17.3z"/>
	<path d="M118.4,47.1c-1.4,0.3-2.4,1.6-2.4,3.1V112c0,2.3-2,4.2-4.4,4c-2.1-0.2-3.6-2.1-3.6-4.2V62c0-4.4-3.6-8-8-8H67.2
		c-4.3,0-8.4-2.1-10.9-5.5c-3.6-4.9-9.5-7.5-15.6-7.5H14c-4.4,0-8,3.6-8,8v65c0,4.4,3.6,8,8,8h98.3c0.1,0,0.3,0,0.4,0
		c5.2-0.4,9.3-4.7,9.3-10V50C122,48.1,120.3,46.7,118.4,47.1z"/>
</g>
</svg>