<?xml version="1.0" encoding="iso-8859-1"?><!-- Generator: Adobe Illustrator 21.0.2, SVG Export Plug-In . SVG Version: 6.00 Build 0)  --><svg xmlns="http://www.w3.org/2000/svg" xmlns:xlink="http://www.w3.org/1999/xlink" viewBox="0 0 80 80" width="80px" height="80px"><path style="fill:none;stroke:#000000;stroke-width:2;stroke-miterlimit:10;" d="M64,17v49c0,2.209-1.791,4-4,4H20c-2.209,0-4-1.791-4-4V17H64z"/><path style="fill:none;stroke:#000000;stroke-width:2;stroke-miterlimit:10;" d="M47,13H33v-3c0-1.105,0.895-2,2-2h10c1.105,0,2,0.895,2,2V13z"/><path style="fill:none;stroke:#000000;stroke-width:2;stroke-miterlimit:10;" d="M66,17H14c-1.105,0-2-0.895-2-2v0c0-1.105,0.895-2,2-2h52c1.105,0,2,0.895,2,2v0C68,16.105,67.105,17,66,17z"/><circle cx="49" cy="35" r="1"/><circle cx="49" cy="39" r="1"/><circle cx="49" cy="43" r="1"/><circle cx="49" cy="47" r="1"/><circle cx="49" cy="31" r="1"/><circle cx="49" cy="51" r="1"/><circle cx="49" cy="55" r="1"/><circle cx="49" cy="59" r="1"/><circle cx="49" cy="27" r="1"/><circle cx="49" cy="23" r="1"/><circle cx="49" cy="63" r="1"/><circle cx="31" cy="35" r="1"/><circle cx="31" cy="39" r="1"/><circle cx="31" cy="43" r="1"/><circle cx="31" cy="47" r="1"/><circle cx="31" cy="31" r="1"/><circle cx="31" cy="51" r="1"/><circle cx="31" cy="55" r="1"/><circle cx="31" cy="59" r="1"/><circle cx="31" cy="27" r="1"/><circle cx="31" cy="23" r="1"/><circle cx="31" cy="63" r="1"/><circle cx="22" cy="35" r="1"/><circle cx="22" cy="39" r="1"/><circle cx="22" cy="43" r="1"/><circle cx="22" cy="47" r="1"/><circle cx="22" cy="31" r="1"/><circle cx="22" cy="51" r="1"/><circle cx="22" cy="55" r="1"/><circle cx="22" cy="59" r="1"/><circle cx="22" cy="27" r="1"/><circle cx="22" cy="23" r="1"/><circle cx="22" cy="63" r="1"/><circle cx="58" cy="35" r="1"/><circle cx="58" cy="39" r="1"/><circle cx="58" cy="43" r="1"/><circle cx="58" cy="47" r="1"/><circle cx="58" cy="31" r="1"/><circle cx="58" cy="51" r="1"/><circle cx="58" cy="55" r="1"/><circle cx="58" cy="59" r="1"/><circle cx="58" cy="27" r="1"/><circle cx="58" cy="23" r="1"/><circle cx="58" cy="63" r="1"/></svg>