<?xml version="1.0" encoding="iso-8859-1"?><!-- Generator: Adobe Illustrator 21.0.2, SVG Export Plug-In . SVG Version: 6.00 Build 0)  --><svg xmlns="http://www.w3.org/2000/svg" xmlns:xlink="http://www.w3.org/1999/xlink" viewBox="0 0 80 80" width="80px" height="80px"><path style="fill:none;stroke:#000000;stroke-width:2;stroke-miterlimit:10;" d="M58,32H22v-5c0-9.941,8.059-18,18-18h0c9.941,0,18,8.059,18,18V32z"/><g><g><path style="fill:none;stroke:#000000;stroke-width:2;stroke-miterlimit:10;" d="M68,63V34c0-1.105-0.895-2-2-2H14c-1.105,0-2,0.895-2,2v29c-1.105,0-2,0.895-2,2v3c0,1.105,0.895,2,2,2h56c1.105,0,2-0.895,2-2v-3C70,63.895,69.105,63,68,63z"/></g></g><circle cx="36" cy="63" r="1"/><circle cx="40" cy="63" r="1"/><circle cx="44" cy="63" r="1"/><circle cx="48" cy="63" r="1"/><circle cx="52" cy="63" r="1"/><circle cx="56" cy="63" r="1"/><circle cx="60" cy="63" r="1"/><circle cx="16" cy="63" r="1"/><circle cx="20" cy="63" r="1"/><circle cx="24" cy="63" r="1"/><circle cx="28" cy="63" r="1"/><circle cx="32" cy="63" r="1"/><circle cx="64" cy="63" r="1"/><circle cx="40" cy="37" r="1"/><circle cx="44" cy="37" r="1"/><circle cx="48" cy="37" r="1"/><circle cx="52" cy="37" r="1"/><circle cx="56" cy="37" r="1"/><circle cx="60" cy="37" r="1"/><circle cx="64" cy="37" r="1"/><circle cx="20" cy="37" r="1"/><circle cx="16" cy="37" r="1"/><circle cx="24" cy="37" r="1"/><circle cx="28" cy="37" r="1"/><circle cx="32" cy="37" r="1"/><circle cx="36" cy="37" r="1"/><g><g><path style="fill:none;stroke:#000000;stroke-width:2;stroke-miterlimit:10;" d="M44,46c0-2.209-1.791-4-4-4s-4,1.791-4,4c0,1.477,0.809,2.752,2,3.445V54c0,1.105,0.895,2,2,2s2-0.895,2-2v-4.555C43.191,48.752,44,47.477,44,46z"/></g></g></svg>